<svg xmlns="http://www.w3.org/2000/svg" fill="none" viewBox="-0.5 -0.5 14 14" height="14" width="14"><g id="landscape-2--photos-photo-landscape-picture-photography-camera-pictures-image"><path id="Vector" stroke="#000000" stroke-linecap="round" stroke-linejoin="round" d="m1.3928571428571428 12.535714285714286 10.214285714285715 0c0.51285 0 0.9285714285714286 -0.4157214285714286 0.9285714285714286 -0.9285714285714286l0 -10.214285714285715c0 -0.5128360714285715 -0.4157214285714286 -0.9285714285714286 -0.9285714285714286 -0.9285714285714286l-10.214285714285715 0c-0.5128360714285715 0 -0.9285714285714286 0.41573535714285714 -0.9285714285714286 0.9285714285714286l0 10.214285714285715c0 0.51285 0.41573535714285714 0.9285714285714286 0.9285714285714286 0.9285714285714286Z" stroke-width="1"></path><path id="Vector_2" stroke="#000000" stroke-linecap="round" stroke-linejoin="round" d="m1.625 12.535714285714286 6.7785714285714285 -6.388608571428572c0.08342285714285715 -0.06948499999999999 0.188565 -0.10753785714285714 0.29714285714285715 -0.10753785714285714 0.10856857142857143 0 0.21371071428571428 0.038052857142857145 0.29713357142857144 0.10753785714285714l3.5378664285714287 2.535" stroke-width="1"></path><path id="Vector_3" stroke="#000000" stroke-linecap="round" stroke-linejoin="round" d="M4.178571428571429 5.571428571428571C4.947827857142857 5.571428571428571 5.571428571428571 4.947827857142857 5.571428571428571 4.178571428571429S4.947827857142857 2.7857142857142856 4.178571428571429 2.7857142857142856 2.7857142857142856 3.4093150000000003 2.7857142857142856 4.178571428571429 3.4093150000000003 5.571428571428571 4.178571428571429 5.571428571428571Z" stroke-width="1"></path></g></svg>