<svg xmlns="http://www.w3.org/2000/svg" fill="none" viewBox="-0.5 -0.5 14 14" height="14" width="14"><g id="cog--work-loading-cog-gear-settings-machine"><path id="Vector" stroke="#ffffff" stroke-linecap="round" stroke-linejoin="round" d="m4.856465714285714 2.0892857142857144 0.3992857142857143 -1.030714285714286c0.06734 -0.174512 0.18581642857142858 -0.32461835714285714 0.3399035714285714 -0.4306602857142857C5.749751428571429 0.5218701428571428 5.932271428571429 0.4648382142857143 6.1193228571428575 0.4642857142857143h0.7614285714285715c0.1870514285714286 0.0005525 0.36958071428571426 0.05758442857142857 0.5236678571428571 0.1636254285714286 0.15409642857142855 0.10604192857142856 0.27256357142857146 0.2561482857142857 0.3399035714285714 0.4306602857142857l0.3992857142857143 1.030714285714286 1.3556771428571428 0.78 1.0957142857142856 -0.16714285714285715c0.18246428571428572 -0.024765 0.36817857142857147 0.005265 0.5335571428571428 0.08628285714285715 0.16528571428571429 0.08101785714285714 0.3028071428571429 0.20935571428571428 0.3950142857142857 0.36871714285714285l0.37142857142857144 0.65c0.09517857142857143 0.16189642857142858 0.1391 0.3488457142857143 0.12582142857142858 0.5361757142857143 -0.01327857142857143 0.18733 -0.08301428571428571 0.3662378571428571 -0.20010714285714287 0.51311l-0.6778571428571428 0.8635714285714287v1.56l0.6964285714285714 0.8635714285714287c0.11709285714285714 0.14687214285714287 0.18682857142857143 0.32578 0.20010714285714287 0.51311 0.01327857142857143 0.18733 -0.030642857142857145 0.3742792857142857 -0.12582142857142858 0.5361757142857143l-0.37142857142857144 0.65c-0.09220714285714286 0.15934285714285715 -0.22972857142857145 0.2876714285714286 -0.3950142857142857 0.36873571428571433 -0.16537857142857143 0.08097142857142857 -0.35109285714285715 0.11105714285714285 -0.5335571428571428 0.08626428571428571l-1.0957142857142856 -0.16714285714285715 -1.3556771428571428 0.78 -0.3992857142857143 1.030714285714286c-0.06734 0.17447857142857146 -0.18580714285714287 0.32462857142857143 -0.3399035714285714 0.4306714285714286 -0.15408714285714287 0.10604285714285715 -0.3366164285714286 0.16305714285714287 -0.5236678571428571 0.1636142857142857h-0.78c-0.1870514285714286 -0.0005571428571428571 -0.3695714285714286 -0.05757142857142857 -0.5236678571428571 -0.1636142857142857 -0.15408714285714287 -0.10604285714285715 -0.27256357142857146 -0.2561928571428571 -0.3399035714285714 -0.4306714285714286l-0.3992857142857143 -1.030714285714286 -1.3557142857142856 -0.78 -1.0957142857142856 0.16714285714285715c-0.1824457142857143 0.024792857142857144 -0.36814142857142856 -0.005292857142857143 -0.5334828571428571 -0.08626428571428571 -0.16533214285714287 -0.08106428571428571 -0.30285357142857144 -0.20939285714285716 -0.39508857142857146 -0.36873571428571433l-0.37142857142857144 -0.65c-0.09517857142857143 -0.16189642857142858 -0.13902571428571428 -0.3488457142857143 -0.1257657142857143 -0.5361757142857143 0.01326 -0.18733 0.08301428571428571 -0.3662378571428571 0.20005142857142857 -0.51311l0.6778571428571428 -0.8635714285714287V5.720000000000001l-0.6964285714285714 -0.8635714285714287c-0.11703714285714287 -0.14687214285714287 -0.18679142857142858 -0.32578 -0.20005142857142857 -0.51311 -0.01326 -0.18733 0.030587142857142854 -0.3742792857142857 0.1257657142857143 -0.5361757142857143l0.37142857142857144 -0.65c0.09223500000000001 -0.15936142857142857 0.22975642857142858 -0.2876992857142857 0.39508857142857146 -0.36871714285714285 0.16534142857142858 -0.08101785714285714 0.3510371428571429 -0.11104785714285714 0.5334828571428571 -0.08628285714285715l1.0957142857142856 0.16714285714285715 1.3742857142857143 -0.78Zm-0.21357142857142858 4.410714285714286c0 0.36730571428571435 0.10892142857142857 0.7263657142857144 0.31298428571428577 1.0317728571428573 0.20407214285714287 0.3054071428571429 0.49411142857142865 0.5434371428571428 0.8334578571428571 0.6840042857142857 0.3393557142857143 0.14055785714285715 0.7127621428571429 0.17733857142857146 1.0730107142857144 0.10568071428571428 0.3602485714285715 -0.07165785714285715 0.6911635714285715 -0.24853214285714287 0.9508942857142858 -0.5082628571428571 0.2597214285714286 -0.2597214285714286 0.4365957142857143 -0.5906364285714286 0.5082535714285714 -0.950885 0.07165785714285715 -0.3602485714285715 0.034886428571428575 -0.733655 -0.10568071428571428 -1.0730107142857144 -0.14055785714285715 -0.3393464285714286 -0.3785971428571429 -0.629395 -0.6840042857142857 -0.8334578571428571C7.226402857142857 4.751778571428572 6.867342857142857 4.642857142857143 6.500037142857144 4.642857142857143c-0.4925421428571428 0 -0.9649157142857143 0.19565928571428573 -1.3131950000000001 0.5439478571428572 -0.34827928571428574 0.34827928571428574 -0.5439478571428572 0.8206528571428572 -0.5439478571428572 1.3131950000000001v0Z" stroke-width="1"></path></g></svg>